# xmcd
#
# Track frame offsets:
#	150
#	24450
#	44032
#	61258
#	84090
#	106109
#	121651
#	141602
#	167428
#	204326
#	218538
#	228940
#	244583
#	264226
#	296929
#
# Disc length: 4275 seconds
#
# Revision: 1
# Processed by: cddbd v1.5.1PL2 Copyright (c) Steve Scherf et al.
# Submitted via: audiograbber 1.83.01
#
DISCID=c710b10f
DTITLE=Blue October - One Day Silver, One Day Gold
DYEAR=2005
DGENRE=Electro
TTITLE0=It's Not Enough
TTITLE1=I Never Thought I'd See You Cry
TTITLE2=Un-done
TTITLE3=Free
TTITLE4=Nervous Energy
TTITLE5=Pushing
TTITLE6=Somewhere
TTITLE7=Are We The Reason?
TTITLE8=Nowhere
TTITLE9=The Soul Within
TTITLE10=Supanova
TTITLE11=Light Over Dark
TTITLE12=The Soul Within (Polarised Sustain Mix)
TTITLE13=It's Not Enough (Modular Music Mix)
TTITLE14=I Never Thought I'd See You Cry (Nano Thought Control Mix)
EXTD=
EXTT0=
EXTT1=
EXTT2=
EXTT3=
EXTT4=
EXTT5=
EXTT6=
EXTT7=
EXTT8=
EXTT9=
EXTT10=
EXTT11=
EXTT12=
EXTT13=
EXTT14=
PLAYORDER=
